<?xml version="1.0" encoding="UTF-8" standalone="no" ?>
<COLLADA version="1.4.1" xmlns="http://www.collada.org/2005/11/COLLADASchema">

  <asset>
    <contributor>
      <authoring_tool>ONSHAPE BY PTC INC, 1.213</authoring_tool>
    </contributor>
    <created>2026-04-05T23:17:06</created>
    <modified>2026-04-05T23:17:06</modified>
    <unit meter="1" name="meters"/>
    <up_axis>Z_UP</up_axis>
  </asset>

  <library_materials>
    <material id="ID9" name="ID9">
      <instance_effect url="#ID9-fx"/>
    </material>
  </library_materials>

  <library_effects>
    <effect id="ID9-fx" name="ID9">
      <profile_COMMON>
        <technique sid="COMMON">
          <lambert>
            <diffuse>
              <color sid="diffuse">0.580392 0.478431 0.345098 1</color>
            </diffuse>
            <transparent opaque="A_ONE">
              <color sid="transparent">1 1 1 1</color>
            </transparent>
            <transparency>
              <float sid="transparency">1</float>
            </transparency>
          </lambert>
        </technique>
        <extra>
          <technique profile="OTHER">
            <double_sided>1</double_sided>
          </technique>
        </extra>
      </profile_COMMON>
    </effect>
  </library_effects>

  <library_geometries>
    <geometry id="ID3">
      <mesh>
        <source id="ID4">
          <float_array count="1902" id="ID5">-0.0443935 0.0314583 0.467274 -0.060304 0.00329374 0.466178 0.00919777 0.0278857 1.05959 0.00919777 0.0278857 1.05959 0.0346968 0.0317121 1.05671 -0.0443935 0.0314583 0.467274 -0.0132581 0.0401061 0.469418 -0.0443935 0.0314583 0.467274 0.0346968 0.0317121 1.05671 -0.060304 0.00329374 0.466178 -0.0516694 -0.0278892 0.466773 -0.00613812 0.00707554 1.06133 -0.060304 0.00329374 0.466178 -0.00613812 0.00707554 1.06133 0.00919777 0.0278857 1.05959 -0.0516694 -0.0278892 0.466773 -0.00232726 -0.018528 1.0609 -0.00613812 0.00707554 1.06133 -0.0516694 -0.0278892 0.466773 -0.0235477 -0.0438239 0.468709 -0.00232726 -0.018528 1.0609 -0.00613812 0.00707554 1.06133 -0.00228286 0.0239883 1.32298 0.00919777 0.0278857 1.05959 -0.00613812 0.00707554 1.06133 -0.00232726 -0.018528 1.0609 -0.0164793 0.00896561 1.32135 -0.00613812 0.00707554 1.06133 -0.0164793 0.00896561 1.32135 -0.00228286 0.0239883 1.32298 0.0183338 0.0245304 1.32533 0.0346968 0.0317121 1.05671 0.00919777 0.0278857 1.05959 0.0183338 0.0245304 1.32533 0.00919777 0.0278857 1.05959 -0.00228286 0.0239883 1.32298 -0.0235477 -0.0438239 0.468709 0.018398 -0.0339267 1.05855 -0.00232726 -0.018528 1.0609 0.018398 -0.0339267 1.05855 -0.0235477 -0.0438239 0.468709 0.00758772 -0.0351762 0.470854 -0.0164793 0.00896561 1.32135 -0.00232726 -0.018528 1.0609 -0.0159394 -0.0117376 1.32141 -0.0159394 -0.0117376 1.32141 -0.00232726 -0.018528 1.0609 0.018398 -0.0339267 1.05855 0.0346968 0.0317121 1.05671 0.0554221 0.0163135 1.05437 -0.0132581 0.0401061 0.469418 0.0554221 0.0163135 1.05437 0.0148636 0.0241714 0.471355 -0.0132581 0.0401061 0.469418 0.0554221 0.0163135 1.05437 0.0346968 0.0317121 1.05671 0.0332937 0.0102744 1.32704 0.0346968 0.0317121 1.05671 0.0183338 0.0245304 1.32533 0.0332937 0.0102744 1.32704 -0.0159394 -0.0117376 1.32141 -0.0270557 -0.00694515 1.54799 -0.0254743 0.00954679 1.54817 -0.0270557 -0.00694515 1.54799 -0.0159394 -0.0117376 1.32141 -0.000979508 -0.0259936 1.32312 -0.0254743 0.00954679 1.54817 -0.0164793 0.00896561 1.32135 -0.0159394 -0.0117376 1.32141 -0.0159394 -0.0117376 1.32141 0.018398 -0.0339267 1.05855 -0.000979508 -0.0259936 1.32312 -0.0270557 -0.00694515 1.54799 0.00222369 0.00926011 1.71989 -0.0254743 0.00954679 1.54817 -0.0270557 -0.00694515 1.54799 -0.000608498 -0.00368026 1.72046 0.00222369 0.00926011 1.71989 -0.000979508 -0.0259936 1.32312 -0.0165611 -0.0197296 1.54919 -0.0270557 -0.00694515 1.54799 -0.0270557 -0.00694515 1.54799 -0.0165611 -0.0197296 1.54919 -0.000608498 -0.00368026 1.72046 0.0132598 0.0163818 1.71767 -0.0254743 0.00954679 1.54817 0.00222369 0.00926011 1.71989 -0.0164793 0.00896561 1.32135 -0.0254743 0.00954679 1.54817 -0.0127434 0.0200855 1.54963 -0.0127434 0.0200855 1.54963 -0.0254743 0.00954679 1.54817 0.0132598 0.0163818 1.71767 -0.000608498 -0.00368026 1.72046 0.0219695 0.0084329 1.83452 0.00222369 0.00926011 1.71989 0.0132598 0.0163818 1.71767 0.00222369 0.00926011 1.71989 0.0314182 0.0129979 1.83262 0.0314182 0.0129979 1.83262 0.00222369 0.00926011 1.71989 0.0219695 0.0084329 1.83452 -0.0165611 -0.0197296 1.54919 -0.000979508 -0.0259936 1.32312 0.0196372 -0.0254515 1.32548 -0.000979508 -0.0259936 1.32312 0.018398 -0.0339267 1.05855 0.0438971 -0.0301002 1.05568 -0.000979508 -0.0259936 1.32312 0.0438971 -0.0301002 1.05568 0.0196372 -0.0254515 1.32548 -0.000608498 -0.00368026 1.72046 -0.0165611 -0.0197296 1.54919 0.00642226 -0.0148591 1.71904 -0.000138138 -0.0213177 1.55107 -0.0165611 -0.0197296 1.54919 0.0196372 -0.0254515 1.32548 0.00642226 -0.0148591 1.71904 -0.0165611 -0.0197296 1.54919 -0.000138138 -0.0213177 1.55107 0.018475 -0.00156252 1.83522 -0.000608498 -0.00368026 1.72046 0.00642226 -0.0148591 1.71904 -0.000608498 -0.00368026 1.72046 0.018475 -0.00156252 1.83522 0.0219695 0.0084329 1.83452 -0.0164793 0.00896561 1.32135 -0.0127434 0.0200855 1.54963 -0.00228286 0.0239883 1.32298 0.026035 0.013513 1.7151 -0.0127434 0.0200855 1.54963 0.0132598 0.0163818 1.71767 -0.00228286 0.0239883 1.32298 -0.0127434 0.0200855 1.54963 0.00367958 0.0184975 1.5515 0.026035 0.013513 1.7151 0.00367958 0.0184975 1.5515 -0.0127434 0.0200855 1.54963 0.026035 0.013513 1.7151 0.0132598 0.0163818 1.71767 0.0412862 0.00945835 1.83064 0.0412862 0.00945835 1.83064 0.0132598 0.0163818 1.71767 0.0314182 0.0129979 1.83262 0.018398 -0.0339267 1.05855 0.00758772 -0.0351762 0.470854 0.0438971 -0.0301002 1.05568 0.0438971 -0.0301002 1.05568 0.00758772 -0.0351762 0.470854 0.0234982 -0.00701156 0.47195 -0.000138138 -0.0213177 1.55107 0.0196372 -0.0254515 1.32548 0.0338336 -0.0104288 1.3271 0.059233 -0.00929006 1.05394 0.0196372 -0.0254515 1.32548 0.0438971 -0.0301002 1.05568 0.0338336 -0.0104288 1.3271 0.0196372 -0.0254515 1.32548 0.059233 -0.00929006 1.05394 0.00642226 -0.0148591 1.71904 -0.000138138 -0.0213177 1.55107 0.0191975 -0.0177279 1.71647 0.018475 -0.00156252 1.83522 0.00642226 -0.0148591 1.71904 0.0229818 -0.0111333 1.83432 0.0229818 -0.0111333 1.83432 0.00642226 -0.0148591 1.71904 0.0191975 -0.0177279 1.71647 -0.000138138 -0.0213177 1.55107 0.0125928 -0.010779 1.55252 0.0191975 -0.0177279 1.71647 -0.000138138 -0.0213177 1.55107 0.0338336 -0.0104288 1.3271 0.0125928 -0.010779 1.55252 0.0183338 0.0245304 1.32533 -0.00228286 0.0239883 1.32298 0.00367958 0.0184975 1.5515 0.0148636 0.0241714 0.471355 0.0554221 0.0163135 1.05437 0.059233 -0.00929006 1.05394 0.059233 -0.00929006 1.05394 0.0234982 -0.00701156 0.47195 0.0148636 0.0241714 0.471355 0.0554221 0.0163135 1.05437 0.0332937 0.0102744 1.32704 0.0338336 -0.0104288 1.3271 0.0554221 0.0163135 1.05437 0.0338336 -0.0104288 1.3271 0.059233 -0.00929006 1.05394 0.00367958 0.0184975 1.5515 0.026035 0.013513 1.7151 0.0330657 0.0023342 1.71368 0.00367958 0.0184975 1.5515 0.0141742 0.00571305 1.55271 0.0183338 0.0245304 1.32533 0.0330657 0.0023342 1.71368 0.0141742 0.00571305 1.55271 0.00367958 0.0184975 1.5515 0.026035 0.013513 1.7151 0.0457931 -0.00011239 1.82974 0.0330657 0.0023342 1.71368 0.0412862 0.00945835 1.83064 0.0457931 -0.00011239 1.82974 0.026035 0.013513 1.7151 -0.00836425 0.000378271 2.16863 0.00798681 -0.00833352 1.99952 -0.00702127 -0.00627187 2.16884 0.005315 -0.000288965 1.99911 0.00798681 -0.00833352 1.99952 -0.00836425 0.000378271 2.16863 0.0115569 0.000622717 2.3136 -0.00836425 0.000378271 2.16863 -0.00702127 -0.00627187 2.16884 -0.00836425 0.000378271 2.16863 0.0115569 0.000622717 2.3136 0.0150419 0.00475101 2.31294 -0.00464629 0.00603727 2.1692 0.005315 -0.000288965 1.99911 -0.00836425 0.000378271 2.16863 -0.00836425 0.000378271 2.16863 0.0150419 0.00475101 2.31294 -0.00464629 0.00603727 2.1692 -0.00702127 -0.00627187 2.16884 0.00798681 -0.00833352 1.99952 0.0155224 -0.0121186 2.00067 0.005315 -0.000288965 1.99911 0.0229818 -0.0111333 1.83432 0.00798681 -0.00833352 1.99952 0.00798681 -0.00833352 1.99952 0.0328499 -0.0146729 1.83234 0.0155224 -0.0121186 2.00067 0.0229818 -0.0111333 1.83432 0.0328499 -0.0146729 1.83234 0.00798681 -0.00833352 1.99952 -0.00702127 -0.00627187 2.16884 0.0119779 -0.00478964 2.31352 0.0115569 0.000622717 2.3136 0.0119779 -0.00478964 2.31352 -0.00702127 -0.00627187 2.16884 -0.00140405 -0.0100175 2.1697 -0.00702127 -0.00627187 2.16884 0.0155224 -0.0121186 2.00067 -0.00140405 -0.0100175 2.1697 0.0115569 0.000622717 2.3136 0.028309 0.00351823 2.40743 0.0150419 0.00475101 2.31294 0.0115569 0.000622717 2.3136 0.0119779 -0.00478964 2.31352 0.025144 0.00058396 2.40803 0.028309 0.00351823 2.40743 0.0115569 0.000622717 2.3136 0.025144 0.00058396 2.40803 0.00907213 0.00730271 1.99969 0.005315 -0.000288965 1.99911 -0.00464629 0.00603727 2.1692 0.0203914 0.00517698 2.31191 -0.00464629 0.00603727 2.1692 0.0150419 0.00475101 2.31294 0.00195468 0.0073903 2.17021 0.00907213 0.00730271 1.99969 -0.00464629 0.00603727 2.1692 0.0203914 0.00517698 2.31191 0.00195468 0.0073903 2.17021 -0.00464629 0.00603727 2.1692 0.00907213 0.00730271 1.99969 0.018475 -0.00156252 1.83522 0.005315 -0.000288965 1.99911 0.018475 -0.00156252 1.83522 0.0229818 -0.0111333 1.83432 0.005315 -0.000288965 1.99911 0.0203914 0.00517698 2.31191 0.0150419 0.00475101 2.31294 0.0325978 0.00332877 2.4066 0.028309 0.00351823 2.40743 0.0325978 0.00332877 2.4066 0.0150419 0.00475101 2.31294 0.0119779 -0.00478964 2.31352 -0.00140405 -0.0100175 2.1697 0.0160583 -0.00831552 2.31274 0.0249567 -0.00375521 2.40807 0.0119779 -0.00478964 2.31352 0.0160583 -0.00831552 2.31274 0.0119779 -0.00478964 2.31352 0.0249567 -0.00375521 2.40807 0.025144 0.00058396 2.40803 -0.00140405 -0.0100175 2.1697 0.0155224 -0.0121186 2.00067 0.0235076 -0.0094269 2.00188 -0.00140405 -0.0100175 2.1697 0.00519692 -0.00866451 2.1707 0.0160583 -0.00831552 2.31274 0.00519692 -0.00866451 2.1707 -0.00140405 -0.0100175 2.1697 0.0235076 -0.0094269 2.00188 0.0155224 -0.0121186 2.00067 0.0422986 -0.0101079 1.83044 0.0235076 -0.0094269 2.00188 0.0328499 -0.0146729 1.83234 0.0422986 -0.0101079 1.83044 0.0155224 -0.0121186 2.00067 0.00195468 0.0073903 2.17021 0.0170573 0.00999436 2.0009 0.00907213 0.00730271 1.99969 0.0203914 0.00517698 2.31191 0.0244718 0.0016511 2.31113 0.00195468 0.0073903 2.17021 0.0075719 0.00364463 2.17106 0.0170573 0.00999436 2.0009 0.00195468 0.0073903 2.17021 0.0244718 0.0016511 2.31113 0.0075719 0.00364463 2.17106 0.00195468 0.0073903 2.17021 0.0219695 0.0084329 1.83452 0.018475 -0.00156252 1.83522 0.00907213 0.00730271 1.99969 0.0170573 0.00999436 2.0009 0.0219695 0.0084329 1.83452 0.00907213 0.00730271 1.99969 0.0244718 0.0016511 2.31113 0.0203914 0.00517698 2.31191 0.035498 0.000126563 2.40605 0.0325978 0.00332877 2.4066 0.035498 0.000126563 2.40605 0.0203914 0.00517698 2.31191 -0.00264173 -0.00506356 2.65482 -0.00317223 4.44702e-05 2.65472 -0.00395232 -0.00262075 2.65457 -0.000758415 0.00137083 2.65519 -0.00317223 4.44702e-05 2.65472 -0.00264173 -0.00506356 2.65482 -0.00395232 -0.00262075 2.65457 0.0146007 -0.00588979 2.51438 -0.00264173 -0.00506356 2.65482 -0.00264173 -0.00506356 2.65482 0.0146007 -0.00588979 2.51438 0.0179869 -0.00646328 2.51504 -8.1752e-06 -0.00585305 2.65533 -0.000758415 0.00137083 2.65519 -0.00264173 -0.00506356 2.65482 -0.00264173 -0.00506356 2.65482 0.0179869 -0.00646328 2.51504 -8.1752e-06 -0.00585305 2.65533 0.012607 -0.00306106 2.514 -0.00395232 -0.00262075 2.65457 -0.00317223 4.44702e-05 2.65472 0.012607 -0.00306106 2.514 -0.00317223 4.44702e-05 2.65472 0.0131737 0.000365942 2.51411 -0.000758415 0.00137083 2.65519 0.0131737 0.000365942 2.51411 -0.00317223 4.44702e-05 2.65472 0.012607 -0.00306106 2.514 0.0146007 -0.00588979 2.51438 -0.00395232 -0.00262075 2.65457 0.012607 -0.00306106 2.514 0.027857 -0.00695736 2.40751 0.0146007 -0.00588979 2.51438 0.0131737 0.000365942 2.51411 0.0249567 -0.00375521 2.40807 0.012607 -0.00306106 2.514 0.012607 -0.00306106 2.514 0.0249567 -0.00375521 2.40807 0.027857 -0.00695736 2.40751 0.0179869 -0.00646328 2.51504 0.0146007 -0.00588979 2.51438 0.0321457 -0.00714681 2.40669 0.0146007 -0.00588979 2.51438 0.027857 -0.00695736 2.40751 0.0321457 -0.00714681 2.40669 0.0159688 0.00238364 2.51465 0.0131737 0.000365942 2.51411 -0.000758415 0.00137083 2.65519 0.00187514 0.000581335 2.6557 -0.000758415 0.00137083 2.65519 -8.1752e-06 -0.00585305 2.65533 0.00187514 0.000581335 2.6557 0.0159688 0.00238364 2.51465 -0.000758415 0.00137083 2.65519 0.0159688 0.00238364 2.51465 0.025144 0.00058396 2.40803 0.0131737 0.000365942 2.51411 0.0249567 -0.00375521 2.40807 0.0131737 0.000365942 2.51411 0.025144 0.00058396 2.40803 0.0179869 -0.00646328 2.51504 0.020782 -0.00444552 2.51558 -8.1752e-06 -0.00585305 2.65533 0.00240564 -0.0045267 2.6558 0.00187514 0.000581335 2.6557 -8.1752e-06 -0.00585305 2.65533 0.00240564 -0.0045267 2.6558 -8.1752e-06 -0.00585305 2.65533 0.020782 -0.00444552 2.51558 0.020782 -0.00444552 2.51558 0.0179869 -0.00646328 2.51504 0.0353108 -0.00421255 2.40608 0.0321457 -0.00714681 2.40669 0.0353108 -0.00421255 2.40608 0.0179869 -0.00646328 2.51504 0.0141742 0.00571305 1.55271 0.0332937 0.0102744 1.32704 0.0183338 0.0245304 1.32533 0.0160583 -0.00831552 2.31274 0.00519692 -0.00866451 2.1707 0.0214078 -0.00788955 2.31172 0.00519692 -0.00866451 2.1707 0.0235076 -0.0094269 2.00188 0.0272648 -0.00183523 2.00246 0.0214078 -0.00788955 2.31172 0.00519692 -0.00866451 2.1707 0.00891488 -0.00300546 2.17127 0.0272648 -0.00183523 2.00246 0.00891488 -0.00300546 2.17127 0.00519692 -0.00866451 2.1707 0.027857 -0.00695736 2.40751 0.0160583 -0.00831552 2.31274 0.0214078 -0.00788955 2.31172 0.0160583 -0.00831552 2.31274 0.027857 -0.00695736 2.40751 0.0249567 -0.00375521 2.40807 0.0457931 -0.00011239 1.82974 0.0272648 -0.00183523 2.00246 0.0235076 -0.0094269 2.00188 0.0457931 -0.00011239 1.82974 0.0235076 -0.0094269 2.00188 0.0422986 -0.0101079 1.83044 0.0234982 -0.00701156 0.47195 0.059233 -0.00929006 1.05394 0.0438971 -0.0301002 1.05568 0.00187514 0.000581335 2.6557 0.019355 0.00181016 2.51531 0.0159688 0.00238364 2.51465 0.00318574 -0.00186147 2.65595 0.00187514 0.000581335 2.6557 0.00240564 -0.0045267 2.6558 0.00187514 0.000581335 2.6557 0.00318574 -0.00186147 2.65595 0.019355 0.00181016 2.51531 0.019355 0.00181016 2.51531 0.028309 0.00351823 2.40743 0.0159688 0.00238364 2.51465 0.028309 0.00351823 2.40743 0.025144 0.00058396 2.40803 0.0159688 0.00238364 2.51465 0.0170573 0.00999436 2.0009 0.0314182 0.0129979 1.83262 0.0219695 0.0084329 1.83452 0.0191975 -0.0177279 1.71647 0.0125928 -0.010779 1.55252 0.0302335 -0.0106062 1.71425 0.0229818 -0.0111333 1.83432 0.0191975 -0.0177279 1.71647 0.0328499 -0.0146729 1.83234 0.0328499 -0.0146729 1.83234 0.0191975 -0.0177279 1.71647 0.0302335 -0.0106062 1.71425 0.0332937 0.0102744 1.32704 0.0125928 -0.010779 1.55252 0.0338336 -0.0104288 1.3271 0.0302335 -0.0106062 1.71425 0.0125928 -0.010779 1.55252 0.0141742 0.00571305 1.55271 0.0141742 0.00571305 1.55271 0.0125928 -0.010779 1.55252 0.0332937 0.0102744 1.32704 0.00240564 -0.0045267 2.6558 0.020782 -0.00444552 2.51558 0.0213487 -0.00101858 2.51569 0.00318574 -0.00186147 2.65595 0.00240564 -0.0045267 2.6558 0.0213487 -0.00101858 2.51569 0.0213487 -0.00101858 2.51569 0.020782 -0.00444552 2.51558 0.035498 0.000126563 2.40605 0.020782 -0.00444552 2.51558 0.0353108 -0.00421255 2.40608 0.035498 0.000126563 2.40605 0.00318574 -0.00186147 2.65595 0.0213487 -0.00101858 2.51569 0.019355 0.00181016 2.51531 0.0325978 0.00332877 2.4066 0.019355 0.00181016 2.51531 0.0213487 -0.00101858 2.51569 0.0325978 0.00332877 2.4066 0.028309 0.00351823 2.40743 0.019355 0.00181016 2.51531 0.0075719 0.00364463 2.17106 0.024593 0.00620933 2.00205 0.0170573 0.00999436 2.0009 0.0075719 0.00364463 2.17106 0.0244718 0.0016511 2.31113 0.0248928 -0.00376125 2.31105 0.0075719 0.00364463 2.17106 0.00891488 -0.00300546 2.17127 0.024593 0.00620933 2.00205 0.0075719 0.00364463 2.17106 0.0248928 -0.00376125 2.31105 0.00891488 -0.00300546 2.17127 0.0314182 0.0129979 1.83262 0.0170573 0.00999436 2.0009 0.024593 0.00620933 2.00205 0.0244718 0.0016511 2.31113 0.0353108 -0.00421255 2.40608 0.0248928 -0.00376125 2.31105 0.035498 0.000126563 2.40605 0.0353108 -0.00421255 2.40608 0.0244718 0.0016511 2.31113 0.024593 0.00620933 2.00205 0.0412862 0.00945835 1.83064 0.0314182 0.0129979 1.83262 0.0213487 -0.00101858 2.51569 0.035498 0.000126563 2.40605 0.0325978 0.00332877 2.4066 0.0141742 0.00571305 1.55271 0.0330657 0.0023342 1.71368 0.0302335 -0.0106062 1.71425 0.0422986 -0.0101079 1.83044 0.0302335 -0.0106062 1.71425 0.0330657 0.0023342 1.71368 0.0457931 -0.00011239 1.82974 0.0422986 -0.0101079 1.83044 0.0330657 0.0023342 1.71368 0.0248928 -0.00376125 2.31105 0.0214078 -0.00788955 2.31172 0.00891488 -0.00300546 2.17127 0.0248928 -0.00376125 2.31105 0.0321457 -0.00714681 2.40669 0.0214078 -0.00788955 2.31172 0.027857 -0.00695736 2.40751 0.0214078 -0.00788955 2.31172 0.0321457 -0.00714681 2.40669 0.00891488 -0.00300546 2.17127 0.0272648 -0.00183523 2.00246 0.024593 0.00620933 2.00205 0.0412862 0.00945835 1.83064 0.024593 0.00620933 2.00205 0.0272648 -0.00183523 2.00246 0.0412862 0.00945835 1.83064 0.0272648 -0.00183523 2.00246 0.0457931 -0.00011239 1.82974 0.0248928 -0.00376125 2.31105 0.0353108 -0.00421255 2.40608 0.0321457 -0.00714681 2.40669 0.0302335 -0.0106062 1.71425 0.0422986 -0.0101079 1.83044 0.0328499 -0.0146729 1.83234 0.00758772 -0.0351762 0.470854 -0.0235477 -0.0438239 0.468709 0.00422525 -0.0423049 0.254 -0.0235477 -0.0438239 0.468709 -0.0516694 -0.0278892 0.466773 -0.0282488 -0.0406974 0.254 -0.0516694 -0.0278892 0.466773 -0.060304 0.00329374 0.466178 -0.0499982 -0.0166423 0.254 -0.060304 0.00329374 0.466178 -0.0443935 0.0314583 0.467274 -0.0483858 0.0156682 0.254 -0.0443935 0.0314583 0.467274 -0.0132581 0.0401061 0.469418 -0.0244567 0.0374112 0.254 -0.0132581 0.0401061 0.469418 0.0148636 0.0241714 0.471355 0.00787572 0.0359494 0.254 0.0148636 0.0241714 0.471355 0.0234982 -0.00701156 0.47195 0.0297706 0.0120358 0.254 0.0234982 -0.00701156 0.47195 0.00758772 -0.0351762 0.470854 0.0282999 -0.0204204 0.254 -0.0244567 0.0374112 0.254 -0.0413206 0.032725 0.254 -0.0443935 0.0314583 0.467274 -0.0483858 0.0156682 0.254 -0.0443935 0.0314583 0.467274 -0.0413206 0.032725 0.254 0.00422525 -0.0423049 0.254 0.0211708 -0.0376317 0.254 0.00758772 -0.0351762 0.470854 0.0282999 -0.0204204 0.254 0.00758772 -0.0351762 0.470854 0.0211708 -0.0376317 0.254 0.0282999 -0.0204204 0.254 0.0369191 -0.00522231 0.254 0.0234982 -0.00701156 0.47195 0.0297706 0.0120358 0.254 0.0234982 -0.00701156 0.47195 0.0369191 -0.00522231 0.254 -0.0282488 -0.0406974 0.254 -0.0128938 -0.0493958 0.254 -0.0235477 -0.0438239 0.468709 0.00422525 -0.0423049 0.254 -0.0235477 -0.0438239 0.468709 -0.0128938 -0.0493958 0.254 0.0297706 0.0120358 0.254 0.0251084 0.0288114 0.254 0.0148636 0.0241714 0.471355 0.00787572 0.0359494 0.254 0.0148636 0.0241714 0.471355 0.0251084 0.0288114 0.254 -0.0499982 -0.0166423 0.254 -0.0452838 -0.0336412 0.254 -0.0516694 -0.0278892 0.466773 -0.0282488 -0.0406974 0.254 -0.0516694 -0.0278892 0.466773 -0.0452838 -0.0336412 0.254 -0.0483858 0.0156682 0.254 -0.0570436 0.000366779 0.254 -0.060304 0.00329374 0.466178 -0.0499982 -0.0166423 0.254 -0.060304 0.00329374 0.466178 -0.0570436 0.000366779 0.254 0.00787572 0.0359494 0.254 -0.00730709 0.0445148 0.254 -0.0132581 0.0401061 0.469418 -0.0244567 0.0374112 0.254 -0.0132581 0.0401061 0.469418 -0.00730709 0.0445148 0.254 -0.0244567 0.0374112 0.254 -0.0413206 0.032725 0.254 -0.0483858 0.0156682 0.254 0.0297706 0.0120358 0.254 0.00787572 0.0359494 0.254 -0.00730709 0.0445148 0.254 0.0251084 0.0288114 0.254 0.00422525 -0.0423049 0.254 0.0282999 -0.0204204 0.254 -0.0499982 -0.0166423 0.254 -0.0282488 -0.0406974 0.254 -0.0570436 0.000366779 0.254 -0.0452838 -0.0336412 0.254 -0.0128938 -0.0493958 0.254 0.0369191 -0.00522231 0.254 0.0211708 -0.0376317 0.254</float_array>
          <technique_common>
            <accessor count="634" source="#ID5" stride="3">
              <param name="X" type="float"/>
              <param name="Y" type="float"/>
              <param name="Z" type="float"/>
            </accessor>
          </technique_common>
        </source>
        <source id="ID6">
          <float_array count="1902" id="ID7">-0.869131 0.487808 0.0815785 -0.869131 0.487808 0.0815785 -0.869131 0.487808 0.0815785 -0.146254 0.989061 0.0191982 -0.146254 0.989061 0.0191982 -0.146254 0.989061 0.0191982 -0.269734 0.96227 0.0357781 -0.269734 0.96227 0.0357781 -0.269734 0.96227 0.0357781 -0.960339 -0.264221 0.0890819 -0.960339 -0.264221 0.0890819 -0.960339 -0.264221 0.0890819 -0.800342 0.595554 0.0690568 -0.800342 0.595554 0.0690568 -0.800342 0.595554 0.0690568 -0.985387 -0.148081 0.08417 -0.985387 -0.148081 0.08417 -0.985387 -0.148081 0.08417 -0.495106 -0.867104 0.0547811 -0.495106 -0.867104 0.0547811 -0.495106 -0.867104 0.0547811 -0.805784 0.591623 -0.0263691 -0.805784 0.591623 -0.0263691 -0.805784 0.591623 -0.0263691 -0.988474 -0.146483 -0.0382464 -0.988474 -0.146483 -0.0382464 -0.988474 -0.146483 -0.0382464 -0.72457 0.688371 -0.0338194 -0.72457 0.688371 -0.0338194 -0.72457 0.688371 -0.0338194 -0.146444 0.989064 0.0175226 -0.146444 0.989064 0.0175226 -0.146444 0.989064 0.0175226 -0.0278344 0.99952 0.0135769 -0.0278344 0.99952 0.0135769 -0.0278344 0.99952 0.0135769 -0.591422 -0.804446 0.055556 -0.591422 -0.804446 0.055556 -0.591422 -0.804446 0.055556 0.267799 -0.96347 -0.00287751 0.267799 -0.96347 -0.00287751 0.267799 -0.96347 -0.00287751 -0.998331 -0.0261864 -0.0514803 -0.998331 -0.0261864 -0.0514803 -0.998331 -0.0261864 -0.0514803 -0.59711 -0.802093 -0.0102928 -0.59711 -0.802093 -0.0102928 -0.59711 -0.802093 -0.0102928 0.593294 0.804137 -0.0369515 0.593294 0.804137 -0.0369515 0.593294 0.804137 -0.0369515 0.494047 0.86914 -0.0226548 0.494047 0.86914 -0.0226548 0.494047 0.86914 -0.0226548 0.599895 0.797323 0.0663435 0.599895 0.797323 0.0663435 0.599895 0.797323 0.0663435 0.684909 0.72606 0.0611333 0.684909 0.72606 0.0611333 0.684909 0.72606 0.0611333 -0.994096 0.095877 -0.0508006 -0.994096 0.095877 -0.0508006 -0.994096 0.095877 -0.0508006 -0.688645 -0.724864 -0.0184542 -0.688645 -0.724864 -0.0184542 -0.688645 -0.724864 -0.0184542 -0.998875 -0.026165 -0.039546 -0.998875 -0.026165 -0.039546 -0.998875 -0.026165 -0.039546 -0.687869 -0.72527 -0.0286336 -0.687869 -0.72527 -0.0286336 -0.687869 -0.72527 -0.0286336 -0.982981 0.0925146 0.158711 -0.982981 0.0925146 0.158711 -0.982981 0.0925146 0.158711 -0.965365 0.217619 0.143916 -0.965365 0.217619 0.143916 -0.965365 0.217619 0.143916 -0.770807 -0.636078 -0.0355032 -0.770807 -0.636078 -0.0355032 -0.770807 -0.636078 -0.0355032 -0.772313 -0.621755 0.130202 -0.772313 -0.621755 0.130202 -0.772313 -0.621755 0.130202 -0.527836 0.844925 0.0865514 -0.527836 0.844925 0.0865514 -0.527836 0.844925 0.0865514 -0.635583 0.771554 -0.0271827 -0.635583 0.771554 -0.0271827 -0.635583 0.771554 -0.0271827 -0.641202 0.758563 0.115941 -0.641202 0.758563 0.115941 -0.641202 0.758563 0.115941 -0.961563 0.217812 0.167197 -0.961563 0.217812 0.167197 -0.961563 0.217812 0.167197 -0.523703 0.845079 0.107599 -0.523703 0.845079 0.107599 -0.523703 0.845079 0.107599 -0.42075 0.903731 0.0789938 -0.42075 0.903731 0.0789938 -0.42075 0.903731 0.0789938 0.0229307 -0.999308 0.0292701 0.0229307 -0.999308 0.0292701 0.0229307 -0.999308 0.0292701 0.152782 -0.987417 0.0407974 0.152782 -0.987417 0.0407974 0.152782 -0.987417 0.0407974 0.0240663 -0.999522 0.0193854 0.0240663 -0.999522 0.0193854 0.0240663 -0.999522 0.0193854 -0.832147 -0.539564 0.128073 -0.832147 -0.539564 0.128073 -0.832147 -0.539564 0.128073 -0.0973409 -0.995204 0.00970395 -0.0973409 -0.995204 0.00970395 -0.0973409 -0.995204 0.00970395 -0.100937 -0.993999 0.0421614 -0.100937 -0.993999 0.0421614 -0.100937 -0.993999 0.0421614 -0.828678 -0.539872 0.147752 -0.828678 -0.539872 0.147752 -0.828678 -0.539872 0.147752 -0.930215 0.335639 0.14848 -0.930215 0.335639 0.14848 -0.930215 0.335639 0.14848 -0.725474 0.687909 -0.021637 -0.725474 0.687909 -0.021637 -0.725474 0.687909 -0.021637 0.216786 0.976145 -0.0120317 0.216786 0.976145 -0.0120317 0.216786 0.976145 -0.0120317 0.0937905 0.99536 0.0214684 0.0937905 0.99536 0.0214684 0.0937905 0.99536 0.0214684 0.0942536 0.995395 0.0174486 0.0942536 0.995395 0.0174486 0.0942536 0.995395 0.0174486 0.220095 0.975465 0.00517916 0.220095 0.975465 0.00517916 0.220095 0.975465 0.00517916 0.333091 0.942567 -0.0248686 0.333091 0.942567 -0.0248686 0.333091 0.942567 -0.0248686 0.148332 -0.988937 -0.000625875 0.148332 -0.988937 -0.000625875 0.148332 -0.988937 -0.000625875 0.870426 -0.489775 -0.0497904 0.870426 -0.489775 -0.0497904 0.870426 -0.489775 -0.0497904 0.72062 -0.689174 0.0757999 0.72062 -0.689174 0.0757999 0.72062 -0.689174 0.0757999 0.805538 -0.586767 0.0825406 0.805538 -0.586767 0.0825406 0.805538 -0.586767 0.0825406 0.721837 -0.689075 0.0642461 0.721837 -0.689075 0.0642461 0.721837 -0.689075 0.0642461 -0.210109 -0.976607 0.0457565 -0.210109 -0.976607 0.0457565 -0.210109 -0.976607 0.0457565 -0.890318 -0.432672 0.141878 -0.890318 -0.432672 0.141878 -0.890318 -0.432672 0.141878 -0.206946 -0.976431 0.0612864 -0.206946 -0.976431 0.0612864 -0.206946 -0.976431 0.0612864 0.640529 -0.765721 -0.0582589 0.640529 -0.765721 -0.0582589 0.640529 -0.765721 -0.0582589 0.632604 -0.77227 0.0584092 0.632604 -0.77227 0.0584092 0.632604 -0.77227 0.0584092 -0.0291072 0.999269 0.0247688 -0.0291072 0.999269 0.0247688 -0.0291072 0.999269 0.0247688 0.986741 0.147988 -0.0666494 0.986741 0.147988 -0.0666494 0.986741 0.147988 -0.0666494 0.962394 0.265382 -0.0580526 0.962394 0.265382 -0.0580526 0.962394 0.265382 -0.0580526 0.996333 0.0262232 0.081438 0.996333 0.0262232 0.081438 0.996333 0.0262232 0.081438 0.985115 0.145076 0.0922039 0.985115 0.145076 0.0922039 0.985115 0.145076 0.0922039 0.836798 0.53868 -0.0979379 0.836798 0.53868 -0.0979379 0.836798 0.53868 -0.0979379 0.768124 0.636812 0.066755 0.768124 0.636812 0.066755 0.768124 0.636812 0.066755 0.77416 0.628208 -0.0776655 0.77416 0.628208 -0.0776655 0.77416 0.628208 -0.0776655 0.839107 0.53795 -0.0806831 0.839107 0.53795 -0.0806831 0.839107 0.53795 -0.0806831 0.896091 0.431722 -0.10313 0.896091 0.431722 -0.10313 0.896091 0.431722 -0.10313 -0.976234 -0.199736 -0.0840993 -0.976234 -0.199736 -0.0840993 -0.976234 -0.199736 -0.0840993 -0.94521 -0.317725 -0.0750216 -0.94521 -0.317725 -0.0750216 -0.94521 -0.317725 -0.0750216 -0.972174 -0.192208 0.133918 -0.972174 -0.192208 0.133918 -0.972174 -0.192208 0.133918 -0.751923 0.651277 0.102229 -0.751923 0.651277 0.102229 -0.751923 0.651277 0.102229 -0.830565 0.552606 -0.0691961 -0.830565 0.552606 -0.0691961 -0.830565 0.552606 -0.0691961 -0.835234 0.536817 0.119211 -0.835234 0.536817 0.119211 -0.835234 0.536817 0.119211 -0.445192 -0.894979 -0.0285635 -0.445192 -0.894979 -0.0285635 -0.445192 -0.894979 -0.0285635 -0.944733 -0.317837 -0.0803652 -0.944733 -0.317837 -0.0803652 -0.944733 -0.317837 -0.0803652 -0.444701 -0.895101 -0.0321936 -0.444701 -0.895101 -0.0321936 -0.444701 -0.895101 -0.0321936 -0.340254 -0.940215 -0.0149499 -0.340254 -0.940215 -0.0149499 -0.340254 -0.940215 -0.0149499 -0.988299 -0.0788217 0.130587 -0.988299 -0.0788217 0.130587 -0.988299 -0.0788217 0.130587 -0.56154 -0.823359 0.0821745 -0.56154 -0.823359 0.0821745 -0.56154 -0.823359 0.0821745 -0.54951 -0.834293 -0.0446573 -0.54951 -0.834293 -0.0446573 -0.54951 -0.834293 -0.0446573 -0.750024 0.651546 0.113809 -0.750024 0.651546 0.113809 -0.750024 0.651546 0.113809 -0.986728 -0.0788686 0.141944 -0.986728 -0.0788686 0.141944 -0.986728 -0.0788686 0.141944 -0.666737 0.739054 0.0962375 -0.666737 0.739054 0.0962375 -0.666737 0.739054 0.0962375 -0.892048 0.446665 -0.0688565 -0.892048 0.446665 -0.0688565 -0.892048 0.446665 -0.0688565 -0.0756871 0.996945 0.0192889 -0.0756871 0.996945 0.0192889 -0.0756871 0.996945 0.0192889 -0.1995 0.979858 -0.00883027 -0.1995 0.979858 -0.00883027 -0.1995 0.979858 -0.00883027 -0.206784 0.977477 0.0421718 -0.206784 0.977477 0.0421718 -0.206784 0.977477 0.0421718 -0.891459 0.446841 -0.0750552 -0.891459 0.446841 -0.0750552 -0.891459 0.446841 -0.0750552 -0.905045 -0.419613 -0.069413 -0.905045 -0.419613 -0.069413 -0.905045 -0.419613 -0.069413 -0.0738239 0.99685 0.0289723 -0.0738239 0.99685 0.0289723 -0.0738239 0.99685 0.0289723 0.045403 0.998947 0.00665803 0.045403 0.998947 0.00665803 0.045403 0.998947 0.00665803 -0.64168 -0.761977 0.0873996 -0.64168 -0.761977 0.0873996 -0.64168 -0.761977 0.0873996 -0.640169 -0.762185 0.0962184 -0.640169 -0.762185 0.0962184 -0.640169 -0.762185 0.0962184 -0.989821 0.0438345 0.135398 -0.989821 0.0438345 0.135398 -0.989821 0.0438345 0.135398 0.313222 -0.948699 0.0431593 0.313222 -0.948699 0.0431593 0.313222 -0.948699 0.0431593 0.202688 -0.979156 -0.0130932 0.202688 -0.979156 -0.0130932 0.202688 -0.979156 -0.0130932 0.196951 -0.980074 0.0257883 0.196951 -0.980074 0.0257883 0.196951 -0.980074 0.0257883 0.313969 -0.948665 0.0381799 0.313969 -0.948665 0.0381799 0.313969 -0.948665 0.0381799 0.443887 -0.894121 0.0592595 0.443887 -0.894121 0.0592595 0.443887 -0.894121 0.0592595 -0.317512 0.948155 -0.0137397 -0.317512 0.948155 -0.0137397 -0.317512 0.948155 -0.0137397 0.644206 0.761463 -0.0719228 0.644206 0.761463 -0.0719228 0.644206 0.761463 -0.0719228 0.547212 0.83472 0.0616519 0.547212 0.83472 0.0616519 0.547212 0.83472 0.0616519 0.559793 0.826753 -0.0557759 0.559793 0.826753 -0.0557759 0.559793 0.826753 -0.0557759 -0.943116 0.324702 -0.0714247 -0.943116 0.324702 -0.0714247 -0.943116 0.324702 -0.0714247 -0.316871 0.948293 -0.018255 -0.316871 0.948293 -0.018255 -0.316871 0.948293 -0.018255 0.645622 0.761073 -0.0627737 0.645622 0.761073 -0.0627737 0.645622 0.761073 -0.0627737 0.731707 0.676776 -0.0811104 0.731707 0.676776 -0.0811104 0.731707 0.676776 -0.0811104 -0.190194 1.82301e-06 0.981746 -0.190194 1.82301e-06 0.981746 -0.190194 1.82301e-06 0.981746 -0.190339 -1.37872e-05 0.981718 -0.190339 -1.37872e-05 0.981718 -0.190339 -1.37872e-05 0.981718 -0.871835 -0.478582 -0.104227 -0.871835 -0.478582 -0.104227 -0.871835 -0.478582 -0.104227 -0.164256 -0.986313 -0.0143642 -0.164256 -0.986313 -0.0143642 -0.164256 -0.986313 -0.0143642 -0.190389 1.2588e-06 0.981709 -0.190389 1.2588e-06 0.981709 -0.190389 1.2588e-06 0.981709 -0.281325 -0.959082 -0.031914 -0.281325 -0.959082 -0.031914 -0.281325 -0.959082 -0.031914 -0.951839 0.285006 -0.113022 -0.951839 0.285006 -0.113022 -0.951839 0.285006 -0.113022 -0.979635 0.165629 -0.113504 -0.979635 0.165629 -0.113504 -0.979635 0.165629 -0.113504 -0.472987 0.879475 -0.0529741 -0.472987 0.879475 -0.0529741 -0.472987 0.879475 -0.0529741 -0.80776 -0.582077 -0.0933327 -0.80776 -0.582077 -0.0933327 -0.80776 -0.582077 -0.0933327 -0.807613 -0.582114 -0.0943603 -0.807613 -0.582114 -0.0943603 -0.807613 -0.582114 -0.0943603 -0.979424 0.165651 -0.115271 -0.979424 0.165651 -0.115271 -0.979424 0.165651 -0.115271 -0.74574 -0.661095 -0.0826095 -0.74574 -0.661095 -0.0826095 -0.74574 -0.661095 -0.0826095 -0.164092 -0.986328 -0.0152207 -0.164092 -0.986328 -0.0152207 -0.164092 -0.986328 -0.0152207 -0.0432483 -0.999054 0.00461531 -0.0432483 -0.999054 0.00461531 -0.0432483 -0.999054 0.00461531 -0.57613 0.814949 -0.0627003 -0.57613 0.814949 -0.0627003 -0.57613 0.814949 -0.0627003 -0.190298 1.10145e-05 0.981726 -0.190298 1.10145e-05 0.981726 -0.190298 1.10145e-05 0.981726 0.279763 0.959227 0.0402116 0.279763 0.959227 0.0402116 0.279763 0.959227 0.0402116 -0.576027 0.814974 -0.0633279 -0.576027 0.814974 -0.0633279 -0.576027 0.814974 -0.0633279 -0.992829 0.0419185 -0.111952 -0.992829 0.0419185 -0.111952 -0.992829 0.0419185 -0.111952 0.573691 -0.815431 0.0771348 0.573691 -0.815431 0.0771348 0.573691 -0.815431 0.0771348 -0.190248 -4.13978e-06 0.981736 -0.190248 -4.13978e-06 0.981736 -0.190248 -4.13978e-06 0.981736 0.471518 -0.879724 0.0612869 0.471518 -0.879724 0.0612869 0.471518 -0.879724 0.0612869 0.574157 -0.815354 0.0744466 0.574157 -0.815354 0.0744466 0.574157 -0.815354 0.0744466 0.686493 -0.721002 0.0942568 0.686493 -0.721002 0.0942568 0.686493 -0.721002 0.0942568 0.683688 0.726154 0.0726043 0.683688 0.726154 0.0726043 0.683688 0.726154 0.0726043 0.078696 -0.996892 -0.00356826 0.078696 -0.996892 -0.00356826 0.078696 -0.996892 -0.00356826 0.888926 -0.447349 0.0984374 0.888926 -0.447349 0.0984374 0.888926 -0.447349 0.0984374 0.836383 -0.540167 -0.0931812 0.836383 -0.540167 -0.0931812 0.836383 -0.540167 -0.0931812 0.828665 -0.553062 0.0862422 0.828665 -0.553062 0.0862422 0.828665 -0.553062 0.0862422 0.0801935 -0.99677 0.00430075 0.0801935 -0.99677 0.00430075 0.0801935 -0.99677 0.00430075 -0.72871 -0.677419 0.100428 -0.72871 -0.677419 0.100428 -0.72871 -0.677419 0.100428 0.889787 -0.447214 0.0909896 0.889787 -0.447214 0.0909896 0.889787 -0.447214 0.0909896 0.941077 -0.321668 0.104422 0.941077 -0.321668 0.104422 0.941077 -0.321668 0.104422 0.801892 -0.59524 -0.051567 0.801892 -0.59524 -0.051567 0.801892 -0.59524 -0.051567 0.161492 0.986456 0.0287416 0.161492 0.986456 0.0287416 0.161492 0.986456 0.0287416 -0.190412 -2.18369e-05 0.981704 -0.190412 -2.18369e-05 0.981704 -0.190412 -2.18369e-05 0.981704 0.870656 0.478832 0.112596 0.870656 0.478832 0.112596 0.870656 0.478832 0.112596 0.161438 0.986456 0.0290178 0.161438 0.986456 0.0290178 0.161438 0.986456 0.0290178 -0.685443 0.724635 -0.071219 -0.685443 0.724635 -0.071219 -0.685443 0.724635 -0.071219 -0.438403 0.898524 -0.021376 -0.438403 0.898524 -0.021376 -0.438403 0.898524 -0.021376 0.533172 -0.844067 -0.0572547 0.533172 -0.844067 -0.0572547 0.533172 -0.844067 -0.0572547 -0.325671 -0.943365 0.0632486 -0.325671 -0.943365 0.0632486 -0.325671 -0.943365 0.0632486 0.535939 -0.843264 -0.0409157 0.535939 -0.843264 -0.0409157 0.535939 -0.843264 -0.0409157 0.995244 0.0262317 0.0938202 0.995244 0.0262317 0.0938202 0.995244 0.0262317 0.0938202 0.989739 -0.0937198 -0.107857 0.989739 -0.0937198 -0.107857 0.989739 -0.0937198 -0.107857 0.991987 -0.0960178 0.0821068 0.991987 -0.0960178 0.0821068 0.991987 -0.0960178 0.0821068 0.977812 -0.16579 0.128054 0.977812 -0.16579 0.128054 0.977812 -0.16579 0.128054 0.950755 -0.285175 0.121407 0.950755 -0.285175 0.121407 0.950755 -0.285175 0.121407 0.978275 -0.165753 0.124513 0.978275 -0.165753 0.124513 0.978275 -0.165753 0.124513 0.990463 -0.0416576 0.13133 0.990463 -0.0416576 0.13133 0.990463 -0.0416576 0.13133 0.805614 0.582546 0.107826 0.805614 0.582546 0.107826 0.805614 0.582546 0.107826 0.805847 0.582503 0.106312 0.805847 0.582503 0.106312 0.805847 0.582503 0.106312 0.0479052 0.998656 0.0197878 0.0479052 0.998656 0.0197878 0.0479052 0.998656 0.0197878 0.441023 0.89562 0.0580051 0.441023 0.89562 0.0580051 0.441023 0.89562 0.0580051 0.989848 0.0787642 -0.118311 0.989848 0.0787642 -0.118311 0.989848 0.0787642 -0.118311 0.974572 0.199927 0.101181 0.974572 0.199927 0.101181 0.974572 0.199927 0.101181 0.974874 0.193479 -0.110389 0.974874 0.193479 -0.110389 0.974874 0.193479 -0.110389 0.44166 0.895576 0.0536763 0.44166 0.895576 0.0536763 0.44166 0.895576 0.0536763 0.991002 0.0787039 -0.10826 0.991002 0.0787039 -0.10826 0.991002 0.0787039 -0.10826 0.992287 -0.0437817 -0.11597 0.992287 -0.0437817 -0.11597 0.992287 -0.0437817 -0.11597 0.346328 0.9367 0.0514836 0.346328 0.9367 0.0514836 0.346328 0.9367 0.0514836 0.746079 0.657819 0.10315 0.746079 0.657819 0.10315 0.746079 0.657819 0.10315 0.968921 -0.217266 -0.118268 0.968921 -0.217266 -0.118268 0.968921 -0.217266 -0.118268 0.971062 -0.216927 -0.099908 0.971062 -0.216927 -0.099908 0.971062 -0.216927 -0.099908 0.935852 -0.334885 -0.109694 0.935852 -0.334885 -0.109694 0.935852 -0.334885 -0.109694 0.753854 -0.650891 -0.0896906 0.753854 -0.650891 -0.0896906 0.753854 -0.650891 -0.0896906 0.755225 -0.650528 -0.0802983 0.755225 -0.650528 -0.0802983 0.755225 -0.650528 -0.0802983 -0.0417319 -0.99905 0.0125311 -0.0417319 -0.99905 0.0125311 -0.0417319 -0.99905 0.0125311 0.942223 0.318228 0.104626 0.942223 0.318228 0.104626 0.942223 0.318228 0.104626 0.94298 0.318138 0.0978663 0.94298 0.318138 0.0978663 0.94298 0.318138 0.0978663 0.903729 0.415997 0.101096 0.903729 0.415997 0.101096 0.903729 0.415997 0.101096 0.669884 -0.738469 -0.0769394 0.669884 -0.738469 -0.0769394 0.669884 -0.738469 -0.0769394 0.428044 -0.902847 -0.040577 0.428044 -0.902847 -0.040577 0.428044 -0.902847 -0.040577 0.265752 -0.963647 0.0275576 0.265752 -0.963647 0.0275576 0.265752 -0.963647 0.0275576 -0.492894 -0.870088 -0.001878 -0.492894 -0.870088 -0.001878 -0.492894 -0.870088 -0.001878 -0.963402 -0.267182 -0.0216899 -0.963402 -0.267182 -0.0216899 -0.963402 -0.267182 -0.0216899 -0.870164 0.49235 -0.0201633 -0.870164 0.49235 -0.0201633 -0.870164 0.49235 -0.0201633 -0.267737 0.96349 0.00186497 -0.267737 0.96349 0.00186497 -0.267737 0.96349 0.00186497 0.491113 0.870531 0.0313832 0.491113 0.870531 0.0313832 0.491113 0.870531 0.0313832 0.962227 0.267417 0.0510625 0.962227 0.267417 0.0510625 0.962227 0.267417 0.0510625 0.868787 -0.492711 0.0494534 0.868787 -0.492711 0.0494534 0.868787 -0.492711 0.0494534 -0.267737 0.96349 0.00186499 -0.267737 0.96349 0.00186499 -0.267737 0.96349 0.00186499 -0.923823 0.38266 -0.0110378 -0.923823 0.38266 -0.0110378 -0.923823 0.38266 -0.0110378 0.265752 -0.963647 0.0275576 0.265752 -0.963647 0.0275576 0.265752 -0.963647 0.0275576 0.922097 -0.381945 0.0620822 0.922097 -0.381945 0.0620822 0.922097 -0.381945 0.0620822 0.868787 -0.49271 0.0494534 0.868787 -0.49271 0.0494534 0.868787 -0.49271 0.0494534 0.922219 0.381996 0.0599245 0.922219 0.381996 0.0599245 0.922219 0.381996 0.0599245 -0.492894 -0.870088 -0.001878 -0.492894 -0.870088 -0.001878 -0.492894 -0.870088 -0.001878 0.382331 -0.923028 0.0429247 0.382331 -0.923028 0.0429247 0.382331 -0.923028 0.0429247 0.962227 0.267417 0.0510624 0.962227 0.267417 0.0510624 0.962227 0.267417 0.0510624 0.382411 0.923221 0.0377331 0.382411 0.923221 0.0377331 0.382411 0.923221 0.0377331 -0.963402 -0.267182 -0.0216899 -0.963402 -0.267182 -0.0216899 -0.963402 -0.267182 -0.0216899 -0.382649 -0.923795 0.01349 -0.382649 -0.923795 0.01349 -0.382649 -0.923795 0.01349 -0.870164 0.49235 -0.0201633 -0.870164 0.49235 -0.0201633 -0.870164 0.49235 -0.0201633 -0.923843 -0.382669 -0.00891741 -0.923843 -0.382669 -0.00891741 -0.923843 -0.382669 -0.00891741 0.491113 0.870531 0.0313832 0.491113 0.870531 0.0313832 0.491113 0.870531 0.0313832 -0.382671 0.923847 0.0083358 -0.382671 0.923847 0.0083358 -0.382671 0.923847 0.0083358 -0 -0 -1 -0 -0 -1 -0 -0 -1 -0 -0 -1 -0 -0 -1 -0 -0 -1 -0 -0 -1 -0 -0 -1 -0 -0 -1 -0 -0 -1 -0 -0 -1 -0 -0 -1 -0 -0 -1 -0 -0 -1 -0 -0 -1 -0 -0 -1</float_array>
          <technique_common>
            <accessor count="634" source="#ID7" stride="3">
              <param name="X" type="float"/>
              <param name="Y" type="float"/>
              <param name="Z" type="float"/>
            </accessor>
          </technique_common>
        </source>
        <vertices id="ID8">
          <input semantic="POSITION" source="#ID4"/>
          <input semantic="NORMAL" source="#ID6"/>
        </vertices>
        <triangles count="220" material="ID9">
          <input offset="0" semantic="VERTEX" source="#ID8"/>
          <p>0 1 2 3 4 5 6 7 8 9 10 11 12 13 14 15 16 17 18 19 20 21 22 23 24 25 26 27 28 29 30 31 32 33 34 35 36 37 38 39 40 41 42 43 44 45 46 47 48 49 50 51 52 53 54 55 56 57 58 59 60 61 62 63 64 65 66 67 68 69 70 71 72 73 74 75 76 77 78 79 80 81 82 83 84 85 86 87 88 89 90 91 92 93 94 95 96 97 98 99 100 101 102 103 104 105 106 107 108 109 110 111 112 113 114 115 116 117 118 119 120 121 122 123 124 125 126 127 128 129 130 131 132 133 134 135 136 137 138 139 140 141 142 143 144 145 146 147 148 149 150 151 152 153 154 155 156 157 158 159 160 161 162 163 164 165 166 167 168 169 170 171 172 173 174 175 176 177 178 179 180 181 182 183 184 185 186 187 188 189 190 191 192 193 194 195 196 197 198 199 200 201 202 203 204 205 206 207 208 209 210 211 212 213 214 215 216 217 218 219 220 221 222 223 224 225 226 227 228 229 230 231 232 233 234 235 236 237 238 239 240 241 242 243 244 245 246 247 248 249 250 251 252 253 254 255 256 257 258 259 260 261 262 263 264 265 266 267 268 269 270 271 272 273 274 275 276 277 278 279 280 281 282 283 284 285 286 287 288 289 290 291 292 293 294 295 296 297 298 299 300 301 302 303 304 305 306 307 308 309 310 311 312 313 314 315 316 317 318 319 320 321 322 323 324 325 326 327 328 329 330 331 332 333 334 335 336 337 338 339 340 341 342 343 344 345 346 347 348 349 350 351 352 353 354 355 356 357 358 359 360 361 362 363 364 365 366 367 368 369 370 371 372 373 374 375 376 377 378 379 380 381 382 383 384 385 386 387 388 389 390 391 392 393 394 395 396 397 398 399 400 401 402 403 404 405 406 407 408 409 410 411 412 413 414 415 416 417 418 419 420 421 422 423 424 425 426 427 428 429 430 431 432 433 434 435 436 437 438 439 440 441 442 443 444 445 446 447 448 449 450 451 452 453 454 455 456 457 458 459 460 461 462 463 464 465 466 467 468 469 470 471 472 473 474 475 476 477 478 479 480 481 482 483 484 485 486 487 488 489 490 491 492 493 494 495 496 497 498 499 500 501 502 503 504 505 506 507 508 509 510 511 512 513 514 515 516 517 518 519 520 521 522 523 524 525 526 527 528 529 530 531 532 533 534 535 536 537 538 539 540 541 542 543 544 545 546 547 548 549 550 551 552 553 554 555 556 557 558 559 560 561 562 563 564 565 566 567 568 569 570 571 572 573 574 575 576 577 578 579 580 581 582 583 584 585 586 587 588 589 590 591 592 593 594 595 596 597 598 599 600 601 602 603 604 605 606 607 608 609 610 611 612 613 614 615 616 617 618 620 619 621 618 622 623 622 618 621 622 624 620 626 625 625 628 627 629 620 627 627 628 630 625 627 620 626 620 618 626 618 621 628 625 631 621 632 626 625 626 633</p>
        </triangles>
      </mesh>
    </geometry>
  </library_geometries>

  <library_visual_scenes>
    <visual_scene id="ID1">
      <node id="ID2">
        <instance_geometry url="#ID3">
          <bind_material>
            <technique_common>
              <instance_material symbol="ID9" target="#ID9"/>
            </technique_common>
          </bind_material>
        </instance_geometry>
      </node>
    </visual_scene>
  </library_visual_scenes>

  <scene>
    <instance_visual_scene url="#ID1"/>
  </scene>

  <library_nodes/>

</COLLADA>
